<svg width="40" height="40" viewBox="0 0 40 40" fill="none" xmlns="http://www.w3.org/2000/svg">
<path d="M8 1H32C35.866 1 39 4.13401 39 8V32C39 35.866 35.866 39 32 39H8C4.13401 39 1 35.866 1 32V8C1 4.13401 4.13401 1 8 1Z" fill="currentColor"/>
<path d="M8 1H32C35.866 1 39 4.13401 39 8V32C39 35.866 35.866 39 32 39H8C4.13401 39 1 35.866 1 32V8C1 4.13401 4.13401 1 8 1Z" stroke="#242145" stroke-width="2"/>
<line x1="12" y1="15" x2="28" y2="15" stroke="#242145" stroke-width="2"/>
<line x1="12" y1="19" x2="28" y2="19" stroke="#242145" stroke-width="2"/>
<line x1="12" y1="23" x2="28" y2="23" stroke="#242145" stroke-width="2"/>
</svg>
